<?xml version="1.0" encoding="utf-8"?>
<!-- Generator: Adobe Illustrator 18.0.0, SVG Export Plug-In . SVG Version: 6.00 Build 0)  -->
<!DOCTYPE svg PUBLIC "-//W3C//DTD SVG 1.1//EN" "http://www.w3.org/Graphics/SVG/1.1/DTD/svg11.dtd">
<svg version="1.1" id="Layer_1" xmlns="http://www.w3.org/2000/svg" xmlns:xlink="http://www.w3.org/1999/xlink" x="0px" y="0px"
	 viewBox="0 0 500 450" enable-background="new 0 0 500 450" xml:space="preserve">
<g id="Layer_1_1_" display="none">
	<path display="inline" fill="#454545" d="M469.4,270.3c-18.4,0-30-12.7-30-30.5c0-18.1,11.8-30.7,30.3-30.7c18.4,0,30,12.7,30,30.5
		C499.7,257.7,487.9,270.3,469.4,270.3z M469.4,215.7c-13.4,0-21.9,8.8-21.9,23.8c0,15.3,8.7,24,22.1,24s21.9-8.8,21.9-23.8
		C491.6,224.5,482.9,215.7,469.4,215.7z M383.2,269.6c-5.4,0-9.8-0.5-12.1-1.2c-2.3-0.7-2.6-2-2.6-4.5v-48.1c0-2.9,0.7-4.2,4.2-4.9
		c2.6-0.5,7-0.9,12.1-0.9c9.5,0,17.5,1.3,23.8,5.7c6.2,4.3,11,11.9,11,23.8c0,12.8-5.6,20.2-11.9,24.4
		C400.5,268.6,391.3,269.6,383.2,269.6z M403.7,221.4c-4.6-3.5-10.5-4.8-18.4-4.8c-5.6,0-8.9,0.6-8.9,0.6v45.2c0,0,3,0.5,8.1,0.5
		c8,0,27.1-1.1,27.1-22.9C411.6,230.8,408.3,225,403.7,221.4z M314.1,270.3c-18.4,0-30-12.7-30-30.5c0-18.1,11.8-30.7,30.3-30.7
		c18.4,0,30,12.7,30,30.5C344.4,257.7,332.6,270.3,314.1,270.3z M314.1,215.7c-13.4,0-21.9,8.8-21.9,23.8c0,15.3,8.7,24,22.1,24
		s21.9-8.8,21.9-23.8C336.3,224.5,327.6,215.7,314.1,215.7z M266.4,217.5h-15.8v47.7c0,1.3,0,2.2-0.5,3c-0.5,0.8-1.8,1.4-3.3,1.4
		c-1.6,0-2.9-0.5-3.4-1.4c-0.5-0.8-0.5-1.7-0.5-3v-47.7H227c-1.2,0-2.1-0.1-2.9-0.6c-0.7-0.5-1.2-1.4-1.2-2.8c0-1.4,0.5-2.3,1.2-2.9
		c0.8-0.5,1.7-0.6,2.9-0.6h39.5c1.2,0,2.1,0.1,2.9,0.6c0.7,0.5,1.2,1.4,1.2,2.8s-0.5,2.3-1.2,2.9
		C268.5,217.5,267.6,217.5,266.4,217.5z"/>
	<path display="inline" fill="#00C802" d="M94.9,130.1c52.4,0,94.9,42.5,94.9,94.9s-42.5,94.9-94.9,94.9S0,277.4,0,225
		S42.5,130.1,94.9,130.1z"/>
	<path display="inline" fill="#FFFFFF" d="M136.8,182.6L114,262.9c-1.5,5-3.6,7.7-10.2,7.7c-5.7,0-8.2-2.1-8.2-5.7
		c0-1.1,0.3-2.3,0.6-3.6l22.9-80.3c1.5-5.1,3.6-7.7,10.1-7.7c5.8,0,8.4,2.1,8.4,5.6C137.5,180.1,137.2,181.3,136.8,182.6z
		 M71.3,262.8c-1.5,5-3.6,7.7-10.2,7.7c-5.7,0-8.2-2.1-8.2-5.7c0-1.1,0.3-2.3,0.6-3.6l22.9-80.3c1.5-5.1,3.6-7.7,10.1-7.7
		c5.8,0,8.4,2.1,8.4,5.6c0,1.3-0.4,2.5-0.8,3.7L71.3,262.8z"/>
</g>
<g>
	<circle fill="#A1D33C" cx="96.3" cy="225" r="94.3"/>
	<g>
		<path fill="#FFFFFF" d="M73.1,261.9c-1.5,4.9-3.5,7.6-10,7.6c-5.6,0-8.1-2.1-8.1-5.6c0-1.1,0.2-2.3,0.6-3.5l22.5-78.7
			c1.5-5,3.5-7.6,9.9-7.6c5.7,0,8.2,2.1,8.2,5.5c0,1.2-0.4,2.4-0.7,3.7L73.1,261.9z"/>
		<path fill="#FFFFFF" d="M116.2,261.9c-1.5,4.9-3.5,7.6-10,7.6c-5.6,0-8.1-2.1-8.1-5.6c0-1.1,0.2-2.3,0.6-3.5l22.5-78.7
			c1.5-5,3.5-7.6,9.9-7.6c5.7,0,8.2,2.1,8.2,5.5c0,1.2-0.4,2.4-0.7,3.7L116.2,261.9z"/>
	</g>
	<g>
		<path fill="#231F20" d="M251.2,257.7c0,1.2,0,2.1-0.5,2.9c-0.5,0.8-1.7,1.3-3.2,1.3c-1.6,0-2.8-0.5-3.3-1.3
			c-0.5-0.8-0.5-1.7-0.5-2.9v-46h-15.3c-1.1,0-2-0.1-2.8-0.6c-0.7-0.5-1.1-1.4-1.1-2.7c0-1.4,0.4-2.3,1.1-2.8
			c0.8-0.5,1.7-0.6,2.8-0.6h38.1c1.1,0,2,0.1,2.8,0.6c0.7,0.5,1.1,1.4,1.1,2.7c0,1.4-0.4,2.3-1.1,2.8c-0.8,0.5-1.7,0.6-2.8,0.6
			h-15.3V257.7z"/>
		<path fill="#231F20" d="M315.6,203.4c17.8,0,29,12.3,29,29.5c0,17.4-11.4,29.6-29.2,29.6c-17.8,0-29-12.3-29-29.5
			C286.4,215.6,297.8,203.4,315.6,203.4z M315.6,256.1c12.9,0,21.1-8.5,21.1-23c0-14.7-8.4-23.2-21.4-23.2c-12.9,0-21.1,8.5-21.1,23
			C294.2,247.6,302.6,256.1,315.6,256.1z"/>
		<path fill="#231F20" d="M402.6,256.3c-7.1,4.6-16,5.6-23.7,5.6c-5.2,0-9.5-0.4-11.7-1.1c-2.2-0.7-2.5-1.9-2.5-4.4v-46.5
			c0-2.8,0.7-4,4.1-4.7c2.5-0.5,6.8-0.9,11.7-0.9c9.2,0,16.9,1.2,23,5.5c6,4.2,10.6,11.5,10.6,22.9
			C414.1,245.1,408.7,252.3,402.6,256.3z M372.3,255c0,0,2.9,0.4,7.8,0.4c7.8,0,26.2-1,26.2-22.2c0-8.8-3.2-14.5-7.7-17.9
			c-4.4-3.4-10.1-4.6-17.8-4.6c-5.4,0-8.5,0.6-8.5,0.6V255z"/>
		<path fill="#231F20" d="M463.2,203.4c17.8,0,29,12.3,29,29.5c0,17.4-11.4,29.6-29.2,29.6c-17.8,0-29-12.3-29-29.5
			C434,215.6,445.4,203.4,463.2,203.4z M463.2,256.1c12.9,0,21.1-8.5,21.1-23c0-14.7-8.4-23.2-21.4-23.2c-12.9,0-21.1,8.5-21.1,23
			C441.8,247.6,450.2,256.1,463.2,256.1z"/>
	</g>
</g>
</svg>
